<svg xmlns="http://www.w3.org/2000/svg" xmlns:xlink="http://www.w3.org/1999/xlink" width="1080" height="1920" viewBox="0 0 1080 1920">
  <defs>
    <filter id="Path_1" x="-9.5" y="-6.5" width="1099" height="1938.997" filterUnits="userSpaceOnUse">
      <feOffset dy="3" input="SourceAlpha"/>
      <feGaussianBlur stdDeviation="3" result="blur"/>
      <feFlood flood-opacity="0.161"/>
      <feComposite operator="in" in2="blur"/>
    </filter>
    <filter id="Path_1-2" x="-9.5" y="-6.5" width="1099" height="1938.997" filterUnits="userSpaceOnUse">
      <feOffset dx="40" dy="20" input="SourceAlpha"/>
      <feGaussianBlur stdDeviation="10" result="blur-2"/>
      <feFlood flood-opacity="0.161" result="color"/>
      <feComposite operator="out" in="SourceGraphic" in2="blur-2"/>
      <feComposite operator="in" in="color"/>
      <feComposite operator="in" in2="SourceGraphic"/>
    </filter>
    <clipPath id="clip-Instagram_Story_1">
      <rect width="1080" height="1920"/>
    </clipPath>
  </defs>
  <g id="Instagram_Story_1" data-name="Instagram Story – 1" clip-path="url(#clip-Instagram_Story_1)">
    <rect width="1080" height="1920" fill="#fff"/>
    <g id="Component_1_1" data-name="Component 1 – 1" transform="translate(0 0)" opacity="0.997">
      <g data-type="innerShadowGroup">
        <g transform="matrix(1, 0, 0, 1, 0, 0)" filter="url(#Path_1)">
          <path id="Path_1-3" data-name="Path 1" d="M422.264,0C159.625,911.711-48.909,211.517,10.054,310.507c30.248,50.782,237.415,1622.8,335.6,1609.408C437.958,1907.323,422.264,0,422.264,0L1080,731.274,345.652,1919.915" transform="translate(0 0)" fill="#757def" stroke="#734bbf" stroke-linejoin="round" stroke-width="1"/>
        </g>
        <path id="Path_1-4" data-name="Path 1" d="M422.264,0C159.625,911.711-48.909,211.517,10.054,310.507c30.248,50.782,237.415,1622.8,335.6,1609.408C437.958,1907.323,422.264,0,422.264,0L1080,731.274,345.652,1919.915" transform="translate(0 0)" fill="#757def"/>
        <g transform="matrix(1, 0, 0, 1, 0, 0)" filter="url(#Path_1-2)">
          <path id="Path_1-5" data-name="Path 1" d="M422.264,0C159.625,911.711-48.909,211.517,10.054,310.507c30.248,50.782,237.415,1622.8,335.6,1609.408C437.958,1907.323,422.264,0,422.264,0L1080,731.274,345.652,1919.915" transform="translate(0 0)" fill="#fff"/>
        </g>
        <path id="Path_1-6" data-name="Path 1" d="M422.264,0C159.625,911.711-48.909,211.517,10.054,310.507c30.248,50.782,237.415,1622.8,335.6,1609.408C437.958,1907.323,422.264,0,422.264,0L1080,731.274,345.652,1919.915" transform="translate(0 0)" fill="none" stroke="#734bbf" stroke-linejoin="round" stroke-width="1"/>
      </g>
    </g>
    <line id="Line_1" data-name="Line 1" y1="151" x2="264" transform="translate(124.378 923.5)" fill="none" stroke="#fff" stroke-width="25"/>
    <line id="Line_2" data-name="Line 2" x2="74" transform="translate(438.5 825.5)" fill="none" stroke="#757def" stroke-width="15"/>
    <g id="Component_2_1" data-name="Component 2 – 1" transform="translate(468.5 829.5)">
      <line id="Line_3" data-name="Line 3" x1="37" y2="94" fill="rgba(0,0,0,0)" stroke="#757def" stroke-width="15"/>
    </g>
    <path id="Path_2" data-name="Path 2" d="M388.378,1037.1c33.657,33.535,20.892,126.984,45.3,158.661,46.11,59.843,115.5,48.652,115.5,48.652" fill="none"/>
    <line id="Line_4" data-name="Line 4" x2="295" y2="477" transform="translate(382 920)" fill="none" stroke="#fff" stroke-width="25"/>
    <line id="Line_5" data-name="Line 5" x2="110" y2="144" transform="translate(540 995)" fill="none" stroke="#757def" stroke-width="15"/>
    <line id="Line_6" data-name="Line 6" x1="2" y2="2" transform="translate(225.5 1028.5)" fill="none" stroke="#707070" stroke-width="1"/>
    <line id="Line_7" data-name="Line 7" x2="221" y2="339" transform="translate(650.5 1368.5)" fill="none" stroke="#757def" stroke-width="25"/>
  </g>
</svg>
